<?xml version="1.0" standalone="no"?>
<!DOCTYPE svg PUBLIC "-//W3C//DTD SVG 20010904//EN"
 "http://www.w3.org/TR/2001/REC-SVG-20010904/DTD/svg10.dtd">
<svg version="1.0" xmlns="http://www.w3.org/2000/svg"
 width="2048.000000pt" height="2048.000000pt" viewBox="0 0 2048.000000 2048.000000"
 preserveAspectRatio="xMidYMid meet">

<g transform="translate(0.000000,2048.000000) scale(0.100000,-0.100000)"
fill="#000000" stroke="none">
<path d="M9853 20389 c-1228 -45 -2468 -322 -3586 -800 -1110 -475 -2085
-1112 -2975 -1942 -95 -89 -180 -162 -187 -162 -19 0 -113 -93 -111 -110 0 -8
-73 -93 -162 -189 -1201 -1288 -2034 -2817 -2451 -4502 -152 -615 -241 -1209
-282 -1884 -14 -239 -14 -883 0 -1120 78 -1253 343 -2374 826 -3490 82 -190
306 -646 410 -834 420 -761 983 -1529 1554 -2118 69 -72 111 -123 108 -131 -7
-18 93 -116 111 -110 7 3 66 -46 130 -109 708 -685 1590 -1302 2517 -1758
1251 -616 2564 -957 3970 -1031 250 -13 1022 -7 1230 10 1296 105 2383 383
3515 898 999 455 2001 1135 2772 1881 64 63 123 112 130 109 18 -6 118 92 111
110 -3 8 39 59 108 131 570 587 1134 1357 1554 2119 102 185 316 620 403 818
487 1115 758 2259 833 3510 14 240 14 885 0 1115 -73 1161 -293 2160 -706
3200 -472 1189 -1161 2266 -2062 3223 -73 78 -131 147 -129 153 5 14 -89 109
-109 109 -8 0 -92 73 -187 162 -1695 1586 -3837 2534 -6138 2717 -399 32 -786
40 -1197 25z m307 -1189 c0 -572 -3 -1040 -7 -1040 -94 -1 -492 -24 -623 -35
-323 -29 -729 -92 -1025 -159 -60 -14 -110 -24 -112 -23 -1 1 -74 293 -163
647 -88 355 -165 662 -171 682 l-10 38 -1680 -840 c-1177 -589 -1678 -844
-1673 -853 4 -6 177 -241 384 -522 207 -280 380 -516 384 -523 5 -9 0 -19 -15
-30 -116 -81 -420 -338 -620 -524 l-136 -126 -737 737 -737 737 128 125 c280
271 665 592 1018 849 1373 1000 3002 1637 4690 1834 385 45 625 62 918 65
l187 1 0 -1040z m870 1015 c1722 -142 3312 -691 4730 -1631 515 -341 1005
-733 1398 -1118 l102 -101 -736 -736 -737 -737 -136 126 c-596 555 -1232 993
-1941 1339 -939 458 -1974 729 -2990 783 -107 6 -241 13 -297 16 l-103 6 0
1041 0 1040 263 -6 c144 -4 345 -14 447 -22z m-3071 -1172 c30 -112 281 -1124
281 -1131 0 -5 -53 -23 -117 -41 -854 -238 -1679 -626 -2392 -1123 -63 -44
-120 -82 -127 -85 -10 -4 -690 904 -682 912 10 10 3005 1504 3015 1504 7 1 17
-16 22 -36z m2201 -2083 c0 -825 -3 -1040 -12 -1040 -65 -1 -394 -22 -473 -30
-182 -19 -388 -50 -564 -86 -95 -19 -174 -34 -176 -32 -4 6 -497 1985 -498
2004 -2 16 13 22 98 41 295 68 701 130 1020 158 243 20 257 21 443 23 l162 2
0 -1040z m770 1015 c1648 -154 3147 -789 4385 -1858 148 -127 349 -316 353
-331 1 -6 -328 -341 -732 -745 l-734 -734 -109 101 c-197 183 -472 402 -676
537 -50 34 -86 64 -83 71 2 6 122 199 267 429 151 240 258 420 253 425 -11 11
-1577 881 -1579 878 -1 -2 -79 -244 -174 -538 -96 -294 -175 -537 -177 -539
-2 -2 -73 15 -158 38 -428 116 -802 177 -1241 201 -104 5 -193 10 -197 10 -5
0 -8 469 -8 1042 l0 1041 223 -6 c122 -3 296 -13 387 -22z m-2398 -1220 c136
-544 247 -998 245 -1009 -1 -14 -22 -24 -87 -42 -590 -168 -1211 -462 -1683
-796 -37 -26 -71 -48 -76 -48 -5 0 -262 343 -572 763 -310 419 -588 795 -618
835 -52 70 -53 73 -35 88 57 44 440 295 569 371 478 284 995 521 1517 694 215
71 450 139 472 136 18 -2 49 -117 268 -992z m-4065 -1100 c-790 -850 -1369
-1816 -1724 -2872 -54 -161 -72 -203 -85 -203 -15 0 -18 -10 -18 -62 0 -35 -7
-85 -16 -113 -36 -118 -116 -455 -153 -645 -83 -428 -127 -814 -138 -1217 l-6
-223 -1044 0 -1043 0 0 148 c0 262 31 689 76 1042 180 1421 666 2788 1427
4014 359 578 832 1185 1271 1634 l101 102 737 -737 736 -736 -121 -132z
m13120 1375 c1146 -1231 1981 -2787 2378 -4432 166 -689 275 -1530 275 -2130
l0 -148 -1045 0 -1045 0 0 128 c0 350 -55 864 -140 1302 -267 1380 -894 2656
-1825 3715 -68 77 -162 181 -208 230 l-86 90 737 737 737 738 43 -43 c25 -23
105 -107 179 -187z m-4562 -868 c341 -189 622 -346 624 -348 4 -4 -3104 -4952
-3124 -4973 -16 -17 -94 -257 975 3031 837 2574 864 2656 884 2646 12 -6 300
-166 641 -356z m-6801 -614 c311 -422 568 -773 571 -780 2 -7 -19 -31 -48 -53
-97 -74 -281 -232 -375 -320 l-94 -88 -734 734 c-404 404 -734 738 -734 743 0
25 421 398 654 579 l98 77 47 -62 c26 -35 303 -408 615 -830z m3936 -827 l0
-1039 -92 -6 c-180 -13 -294 -27 -436 -52 -79 -14 -147 -22 -152 -18 -4 5
-120 460 -257 1011 -215 862 -248 1003 -234 1007 97 30 503 96 711 115 178 17
187 18 328 19 l132 2 0 -1039z m506 1029 c269 -21 582 -69 823 -126 190 -44
373 -97 378 -110 4 -12 -623 -1953 -637 -1968 -4 -4 -61 6 -127 23 -215 55
-420 87 -690 107 l-93 6 0 1039 0 1039 109 0 c59 0 166 -5 237 -10z m-5227
-814 l734 -734 -100 -109 c-498 -535 -894 -1179 -1153 -1873 -32 -85 -66 -181
-76 -214 -10 -32 -24 -60 -30 -63 -11 -4 -1972 574 -1986 586 -12 10 68 252
172 521 311 804 760 1555 1329 2225 131 154 354 395 366 395 6 0 340 -330 744
-734z m10467 614 c1002 -1069 1683 -2405 1958 -3840 80 -418 136 -940 136
-1272 l0 -118 -1043 0 -1044 0 -6 188 c-14 412 -90 880 -213 1304 -244 848
-694 1645 -1286 2281 l-101 109 734 734 c404 404 739 733 745 732 7 -2 60 -55
120 -118z m-6832 -967 c137 -549 251 -1004 254 -1010 2 -7 -2 -15 -9 -17 -415
-130 -693 -258 -978 -449 -51 -34 -78 -47 -87 -41 -7 5 -288 380 -623 834
-414 561 -606 829 -600 836 14 18 248 171 389 256 386 233 835 427 1300 562
47 14 90 25 95 25 6 1 122 -448 259 -996z m4296 211 c216 -148 448 -336 655
-528 l70 -65 -735 -735 c-404 -405 -738 -736 -742 -736 -5 0 -40 29 -78 64
-91 84 -214 182 -317 254 -45 31 -81 62 -80 69 5 28 1102 1761 1112 1756 5 -4
57 -39 115 -79z m-5855 -992 c334 -453 608 -829 609 -836 0 -7 -30 -39 -69
-71 -38 -32 -96 -83 -127 -112 -31 -29 -60 -53 -65 -53 -17 0 -1475 1468
-1469 1479 12 19 285 259 395 347 57 46 108 81 111 77 4 -5 280 -378 615 -831z
m-498 -444 c403 -403 733 -737 733 -742 0 -5 -28 -38 -61 -74 -272 -291 -519
-699 -674 -1114 -26 -71 -52 -128 -58 -128 -18 0 -1972 583 -1981 591 -11 10
75 261 161 469 244 587 577 1110 1025 1608 60 67 113 122 116 122 4 0 337
-330 739 -732z m7306 604 c843 -932 1334 -2077 1427 -3322 5 -74 10 -177 10
-227 l0 -93 -1045 0 -1045 0 0 83 c0 97 -22 295 -50 457 -108 608 -411 1224
-828 1683 -34 37 -62 71 -62 75 0 9 1462 1472 1471 1472 4 0 59 -58 122 -128z
m-4163 -1481 l0 -1038 -67 -6 c-37 -4 -70 -3 -73 2 -10 17 -503 2002 -498
2007 9 8 208 44 323 58 61 8 156 14 213 15 l102 1 0 -1039z m460 1024 c196
-22 528 -92 553 -115 8 -7 -617 -1954 -632 -1972 -4 -4 -38 -1 -76 7 -39 8
-87 15 -107 15 l-38 0 0 1040 0 1040 88 0 c48 0 143 -7 212 -15z m-1001 -1102
c139 -553 248 -1009 244 -1013 -4 -3 -35 -17 -68 -29 -33 -13 -93 -42 -133
-63 -40 -22 -76 -37 -80 -33 -4 3 -282 379 -619 833 l-612 827 25 20 c100 80
416 255 599 330 80 33 370 135 386 135 4 0 120 -453 258 -1007z m2534 511
c109 -79 216 -166 299 -242 l59 -55 -733 -734 c-403 -403 -737 -733 -741 -733
-11 0 -87 62 -87 70 0 4 244 396 543 871 298 475 546 870 550 877 5 6 10 12
13 12 2 0 46 -30 97 -66z m-3308 -912 c336 -454 611 -832 613 -839 2 -7 -2
-13 -10 -13 -7 0 -343 330 -746 733 l-732 732 47 46 c71 69 195 169 207 168 6
0 286 -372 621 -827z m485 -964 c0 -4 -27 -44 -60 -90 -32 -46 -81 -129 -107
-185 -26 -57 -53 -103 -58 -103 -6 0 -453 132 -995 293 -723 216 -986 298
-988 309 -5 28 87 257 174 433 139 282 297 516 501 743 l66 74 734 -734 c403
-403 733 -736 733 -740z m3400 1347 c467 -544 752 -1245 787 -1940 l6 -125
-1039 1 c-571 1 -1032 3 -1024 5 8 2 294 40 635 85 341 45 624 85 628 89 8 7
-180 778 -193 793 -4 4 -265 -103 -581 -238 -316 -136 -589 -253 -607 -260
l-32 -14 -24 47 c-13 26 -49 82 -80 125 -31 43 -56 81 -56 85 0 4 329 336 732
739 706 706 733 732 751 715 11 -9 54 -57 97 -107z m-8010 -580 c1009 -301
1961 -584 2115 -630 950 -284 2927 -872 3018 -899 59 -17 107 -33 107 -36 0
-3 -48 -19 -107 -36 -91 -27 -2068 -615 -3018 -899 -154 -46 -1106 -329 -2115
-630 -1009 -300 -1854 -552 -1877 -560 l-43 -14 0 2139 0 2139 43 -14 c23 -8
868 -260 1877 -560z m-2080 -740 l0 -745 -82 0 -81 0 6 213 c9 273 32 539 73
827 18 125 76 450 81 450 2 0 3 -335 3 -745z m7519 18 l-1 -198 -49 190 c-26
105 -49 193 -49 198 0 4 23 7 50 7 l50 0 -1 -197z m327 184 c3 -3 -32 -122
-79 -264 l-85 -258 -1 269 -1 269 80 -5 c44 -3 83 -7 86 -11z m-567 -64 c47
-178 141 -567 139 -573 -2 -5 -88 106 -191 247 -104 140 -187 256 -185 257 37
27 198 105 220 106 4 0 12 -17 17 -37z m1005 -162 c3 -4 -54 -66 -126 -137
-72 -71 -126 -122 -122 -113 5 9 49 79 98 157 l89 141 28 -20 c16 -11 31 -23
33 -28z m-1209 -382 c143 -144 251 -258 239 -255 -292 86 -687 206 -691 209
-17 17 155 306 182 307 6 0 127 -117 270 -261z m1346 239 c41 -48 111 -170
103 -177 -8 -7 -531 -233 -574 -248 -8 -3 86 96 210 221 124 124 229 226 233
226 5 0 17 -10 28 -22z m-8729 -948 c19 -604 125 -1294 282 -1836 16 -53 26
-113 26 -151 0 -53 3 -63 18 -63 13 0 30 -40 80 -188 349 -1032 929 -2015
1651 -2799 58 -64 127 -139 153 -167 l47 -52 -738 -738 -738 -738 -135 144
c-699 741 -1240 1514 -1687 2408 -414 828 -686 1622 -865 2525 -111 556 -186
1257 -186 1726 l0 139 1043 -2 1042 -3 7 -205z m307 -537 l-1 -748 -23 115
c-72 355 -119 777 -132 1173 l-6 207 81 0 82 0 -1 -747z m8636 700 c-12 -89
-47 -208 -81 -283 -41 -88 -95 -180 -106 -180 -6 0 -504 403 -627 506 -2 2
181 4 408 4 l413 0 -7 -47z m2241 -75 c-33 -603 -247 -1203 -611 -1711 -38
-54 -74 -98 -80 -97 -5 0 -363 290 -795 643 -431 353 -793 649 -803 658 -19
15 -18 17 16 70 87 136 157 321 178 472 l13 87 1045 0 1044 0 -7 -122z m2241
-45 c-38 -985 -364 -1981 -923 -2818 -132 -196 -257 -360 -276 -359 -15 1
-1608 1299 -1608 1311 0 3 29 44 64 92 381 515 621 1179 652 1809 l7 132 1045
0 1045 0 -6 -167z m2243 54 c0 -62 -5 -184 -10 -272 -59 -941 -275 -1831 -651
-2684 -82 -185 -286 -583 -393 -766 -158 -269 -436 -675 -633 -922 -7 -9 -18
-13 -25 -10 -23 10 -1603 1308 -1601 1316 1 4 45 64 97 134 677 900 1083 2035
1123 3135 l6 182 1044 0 1043 0 0 -113z m2240 -26 c0 -247 -30 -675 -71 -1006
-256 -2083 -1151 -4010 -2584 -5565 -79 -85 -161 -172 -182 -192 l-38 -38
-310 310 -310 310 323 323 323 324 -485 397 c-267 219 -486 400 -486 403 0 2
65 91 144 196 240 321 405 573 589 903 509 911 833 1916 952 2956 23 201 45
534 45 679 0 69 3 129 7 132 3 4 474 7 1045 7 l1038 0 0 -139z m-10183 -404
c-35 -202 -67 -370 -70 -373 -17 -18 -235 77 -337 146 -101 68 -118 37 191
346 151 151 275 269 277 262 1 -7 -26 -178 -61 -381z m532 25 c110 -150 201
-275 201 -277 0 -19 -284 -135 -297 -121 -3 3 -30 144 -59 313 -29 170 -56
324 -59 343 -4 22 -3 31 3 25 5 -5 100 -133 211 -283z m-1239 238 c-60 -31
-84 -37 -78 -18 3 7 29 20 59 29 77 24 81 22 19 -11z m-210 -94 c0 -6 -421
-222 -935 -479 l-936 -467 -26 57 c-49 111 -115 286 -116 311 -2 24 9 28 993
322 880 263 996 295 1008 282 6 -9 12 -21 12 -26z m1534 -2528 c235 -1377 430
-2511 433 -2520 4 -17 -42 -18 -867 -18 -825 0 -871 1 -867 18 3 9 198 1143
433 2520 236 1376 431 2502 434 2502 3 0 198 -1126 434 -2502z m-1334 2199 c0
-6 -331 -343 -735 -747 l-734 -734 -32 29 c-41 39 -189 214 -188 223 0 8 1671
1242 1682 1242 4 0 7 -6 7 -13z m239 -199 c88 -60 207 -118 309 -148 51 -16
72 -27 72 -38 0 -28 -347 -2042 -353 -2048 -7 -7 -240 51 -372 93 -441 142
-890 401 -1196 692 l-64 60 739 740 740 740 25 -20 c14 -11 59 -43 100 -71z
m2901 -1414 c-21 -22 -161 -143 -211 -182 -15 -11 -89 85 -638 828 -342 462
-619 846 -615 852 4 6 322 -305 747 -730 l741 -741 -24 -27z m-975 558 c338
-458 615 -837 615 -842 0 -19 -256 -177 -415 -258 -102 -51 -274 -122 -409
-168 -137 -47 -414 -119 -423 -110 -6 6 -353 2019 -353 2047 0 11 29 25 98 48
53 17 133 51 177 75 44 25 83 43 87 43 4 -1 284 -377 623 -835z m-4490 658
c23 -63 59 -152 79 -197 20 -45 36 -84 36 -87 0 -3 -261 -136 -580 -296 -319
-160 -580 -292 -580 -295 0 -9 570 -765 576 -765 4 0 856 625 969 711 6 4 41
-29 82 -79 40 -48 92 -110 117 -138 l45 -50 -738 -738 -738 -738 -93 99 c-245
259 -487 581 -701 934 -102 170 -300 569 -377 764 -77 192 -146 395 -137 403
11 11 1959 591 1978 589 14 -2 29 -31 62 -117z m5075 -433 c349 -286 636 -521
638 -522 2 -2 -24 -32 -57 -67 l-60 -63 -593 594 c-326 326 -586 590 -578 585
8 -4 300 -242 650 -527z m-7241 -159 c117 -367 305 -777 521 -1139 212 -353
423 -632 741 -982 l63 -68 -737 -737 -737 -737 -46 45 c-72 71 -265 286 -391
437 -246 295 -530 700 -728 1038 -107 182 -312 580 -394 766 -123 280 -330
843 -316 858 9 8 1957 589 1981 590 16 1 24 -12 43 -71z m8796 -1114 c435
-355 796 -652 804 -659 12 -12 6 -24 -45 -82 -32 -37 -92 -103 -133 -146 l-75
-78 -737 737 -738 738 61 68 c33 37 63 68 67 68 3 0 362 -291 796 -646z
m-5650 290 c408 -354 908 -611 1438 -739 77 -18 142 -36 145 -39 6 -7 -338
-2030 -348 -2046 -7 -11 -185 25 -395 80 -565 147 -1123 395 -1615 717 -262
172 -544 393 -742 582 l-89 85 738 738 737 737 26 -23 c14 -12 61 -54 105 -92z
m6057 -1397 c-55 -58 -255 -233 -366 -322 -82 -65 -100 -75 -111 -64 -16 17
-1197 1617 -1216 1647 -12 19 -11 23 6 36 11 8 72 59 135 114 l115 100 737
-736 738 -737 -38 -38z m-1217 356 c336 -454 614 -831 618 -839 5 -10 -40 -45
-165 -128 -424 -280 -828 -477 -1308 -637 -275 -92 -717 -200 -730 -179 -10
16 -354 2039 -348 2046 3 3 68 21 145 39 388 94 795 272 1093 478 36 25 70 46
75 46 6 0 285 -371 620 -826z m2558 -678 c438 -357 796 -655 796 -661 1 -14
-176 -217 -312 -359 l-96 -100 -737 737 -738 737 80 86 c43 48 104 116 134
151 30 36 60 63 66 62 6 -2 369 -295 807 -653z m-8980 127 c587 -532 1253
-927 1991 -1181 211 -73 526 -156 782 -207 19 -3 21 -8 13 -46 -4 -24 -8 -46
-9 -50 0 -5 218 -8 485 -8 l485 0 0 -1040 0 -1040 -97 0 c-229 0 -703 41 -993
86 -1522 234 -2909 895 -4048 1927 -70 64 -147 136 -172 161 l-45 46 735 735
c404 404 738 734 742 733 4 -2 63 -54 131 -116z m8527 -618 l735 -735 -100
-96 c-178 -171 -631 -553 -656 -553 -6 0 -1231 1652 -1237 1668 -1 4 62 60
140 124 79 64 195 163 258 222 63 58 117 105 120 106 3 0 336 -331 740 -736z
m-767 -641 c488 -661 615 -839 606 -849 -18 -22 -432 -295 -579 -382 -537
-317 -1090 -562 -1675 -741 -655 -202 -1331 -315 -2012 -338 l-193 -6 0 1041
0 1042 485 0 c267 0 485 3 485 8 -1 4 -5 26 -9 49 -8 41 -8 42 23 48 499 102
909 235 1338 435 264 123 622 328 833 479 39 28 72 50 75 50 3 0 283 -376 623
-836z m2558 36 c222 -182 411 -337 419 -345 12 -12 -18 -46 -235 -265 -138
-138 -257 -254 -266 -259 -12 -7 -97 73 -387 363 l-372 372 117 125 c64 69
159 173 211 233 51 59 97 107 101 107 4 0 189 -149 412 -331z m-11906 -360
c453 -432 1033 -852 1619 -1173 1077 -591 2291 -924 3509 -963 l207 -6 0
-1044 0 -1043 -122 0 c-150 0 -433 15 -668 35 -2258 196 -4345 1135 -6008
2703 l-144 135 738 738 738 738 26 -22 c14 -12 61 -56 105 -98z m11695 -638
c-5 -9 -193 -200 -419 -425 l-410 -409 -342 463 -343 463 30 21 c128 92 425
344 619 524 l130 122 372 -372 c290 -290 370 -375 363 -387z m-1244 -531 c213
-289 389 -527 391 -530 2 -2 222 214 488 480 l485 485 311 -310 310 -310 -118
-114 c-171 -164 -430 -391 -648 -566 -1691 -1358 -3787 -2132 -5942 -2192
l-233 -6 0 1045 0 1045 208 6 c1324 42 2634 430 3789 1123 142 86 468 301 523
345 19 16 38 27 42 26 3 -1 180 -238 394 -527z"/>
</g>
</svg>
