<?xml version="1.0" standalone="no"?>
<!DOCTYPE svg PUBLIC "-//W3C//DTD SVG 20010904//EN"
 "http://www.w3.org/TR/2001/REC-SVG-20010904/DTD/svg10.dtd">
<svg version="1.0" xmlns="http://www.w3.org/2000/svg"
 width="225.000000pt" height="225.000000pt" viewBox="0 0 225.000000 225.000000"
 preserveAspectRatio="xMidYMid meet">

<g transform="translate(0.000000,225.000000) scale(0.100000,-0.100000)"
fill="#000000" stroke="none">
<path d="M915 2170 c-499 -100 -855 -536 -855 -1045 0 -590 475 -1065 1065
-1065 590 0 1065 475 1065 1065 0 449 -274 841 -700 1002 -163 62 -396 79
-575 43z m404 -46 c304 -54 575 -261 717 -549 144 -294 144 -606 0 -900 -103
-208 -253 -358 -461 -461 -294 -144 -606 -144 -900 0 -208 103 -358 253 -461
461 -144 294 -144 606 0 900 103 208 253 358 461 461 212 104 403 130 644 88z"/>
<path d="M965 1305 c-89 -16 -204 -58 -424 -152 -96 -40 -218 -88 -270 -105
-53 -17 -97 -32 -98 -32 -5 -3 21 -120 38 -173 19 -58 23 -63 50 -63 26 0 29
4 29 30 l0 30 80 0 c73 0 80 2 80 20 0 18 7 20 75 20 43 0 75 4 75 10 0 6 37
10 90 10 53 0 90 -4 90 -10 0 -6 33 -10 80 -10 73 0 80 -2 80 -20 0 -17 8 -19
78 -22 76 -3 77 -3 80 -30 3 -28 4 -28 78 -28 l74 0 0 -35 0 -35 80 0 80 0 0
-30 0 -30 80 0 c79 0 80 0 80 -25 0 -24 2 -25 76 -25 67 0 76 -2 81 -20 5 -18
14 -20 78 -20 49 0 75 -4 77 -12 7 -21 106 151 138 241 26 70 64 223 57 227
-1 0 -45 15 -98 32 -52 17 -174 65 -270 106 -317 135 -433 167 -596 165 -43 0
-109 -7 -148 -14z"/>
<path d="M622 593 l3 -288 60 -32 c33 -18 63 -33 68 -33 4 0 7 144 7 320 l0
320 -70 0 -70 0 2 -287z"/>
<path d="M460 647 l0 -213 33 -31 c17 -16 49 -42 70 -58 l37 -27 0 271 0 271
-70 0 -70 0 0 -213z"/>
<path d="M782 543 l3 -316 50 -18 c93 -33 85 -63 85 316 l0 335 -70 0 -70 0 2
-317z"/>
<path d="M310 716 l0 -104 44 -58 c24 -33 55 -70 70 -83 l26 -24 0 186 0 187
-70 0 -70 0 0 -104z"/>
<path d="M940 501 l0 -318 38 -7 c20 -3 52 -6 70 -6 l32 0 0 325 0 325 -70 0
-70 0 0 -319z"/>
<path d="M240 753 c1 -5 12 -28 25 -53 l24 -45 1 53 c0 49 -1 52 -25 52 -14 0
-25 -3 -25 -7z"/>
<path d="M1097 753 c-4 -3 -7 -136 -7 -295 l0 -288 70 0 70 0 0 295 0 295 -63
0 c-35 0 -67 -3 -70 -7z"/>
<path d="M1250 431 l0 -258 48 8 c26 5 57 11 70 14 l22 5 0 245 0 245 -70 0
-70 0 0 -259z"/>
<path d="M1410 419 l0 -210 23 6 c12 4 43 16 70 27 l47 20 0 184 0 184 -70 0
-70 0 0 -211z"/>
<path d="M1570 430 c0 -82 4 -150 8 -150 5 0 37 18 70 40 l62 40 0 110 0 110
-70 0 -70 0 0 -150z"/>
<path d="M1720 460 c0 -44 4 -80 8 -80 15 0 132 126 132 143 0 14 -10 17 -70
17 l-70 0 0 -80z"/>
</g>
</svg>
